<?xml version="1.0" encoding="UTF-8"?>
<svg id="Layer_2" data-name="Layer 2" xmlns="http://www.w3.org/2000/svg" viewBox="0 0 512 512">
  <defs>
    <style>
      .cls-1 {
        fill: #034422;
      }

      .cls-2 {
        fill: #1eb720;
      }
    </style>
  </defs>
  <g id="Layer_1-2" data-name="Layer 1">
    <g>
      <rect class="cls-1" width="512" height="512" rx="20" ry="20"/>
      <g id="Group_1" data-name="Group 1">
        <path id="Path_2" data-name="Path 2" class="cls-2" d="m251.57,240.43h-122.66c-5.86,0-10.6-4.75-10.6-10.61,0-3.79,2.02-7.28,5.3-9.18l183.99-106.23c5.07-2.93,11.56-1.19,14.49,3.89,1.89,3.28,1.89,7.32,0,10.6l-61.33,106.23c-1.9,3.28-5.4,5.3-9.18,5.3Z"/>
        <path id="Path_3" data-name="Path 3" class="cls-2" d="m377.69,154.88v212.46c0,5.86-4.75,10.6-10.6,10.6-3.79,0-7.29-2.02-9.18-5.3l-61.33-106.23c-1.9-3.28-1.9-7.32,0-10.6l61.33-106.23c2.93-5.07,9.41-6.81,14.48-3.88,3.28,1.89,5.3,5.39,5.3,9.18Z"/>
        <path id="Path_4" data-name="Path 4" class="cls-2" d="m260.76,287.09l61.33,106.23c2.93,5.07,1.19,11.56-3.88,14.48-3.28,1.9-7.33,1.89-10.61,0l-183.99-106.23c-5.07-2.93-6.81-9.42-3.88-14.49,1.89-3.28,5.39-5.3,9.18-5.3h122.66c3.79,0,7.29,2.02,9.18,5.3Z"/>
      </g>
    </g>
  </g>
</svg>